# xmcd CD database file
#
# Track frame offsets:
#        150
#        12735
#        30357
#        44762
#        57252
#        73280
#        94327
#        132360
#        154952
#        168292
#        188045
#
# Disc length: 2732 seconds
#
# Revision: 0
# Processed by: cddbd v1.5.2PL0 Copyright (c) Steve Scherf et al.
# Submitted via: CUERipper 2.1.6
#
DISCID=9d0aaa0b
DTITLE=葉加瀬太郎 meets Forever Tango - Tango Nostalgia
DYEAR=2000
DGENRE=
TTITLE0=ワタシ
TTITLE1=ラ・クンパルシータ
TTITLE2=グリセール
TTITLE3=リベルタンゴ
TTITLE4=ノスタルジア
TTITLE5=ジェラシー
TTITLE6=父に捧げるプレリュード
TTITLE7=わが両親の家
TTITLE8=酔いどれたち
TTITLE9=エバリスト・カリエゴに捧ぐ
TTITLE10=想いのとどく日
EXTD=
EXTT0=
EXTT1=
EXTT2=
EXTT3=
EXTT4=
EXTT5=
EXTT6=
EXTT7=
EXTT8=
EXTT9=
EXTT10=
PLAYORDER=
